<svg xmlns="http://www.w3.org/2000/svg" width="102" height="105" viewBox="0 0 102 105" fill="none"><ellipse cx="51" cy="52.5" rx="51" ry="52.5" fill="#52376C"></ellipse><path d="M77.2916 66.1124C76.9856 65.847 80.1529 49.9189 77.4155 35.2879C78.1158 34.5711 79.8544 34.6638 80.6842 34.9152C92.5262 38.5074 88.9602 76.2294 77.2916 66.1124ZM73.593 57.8925L72.0997 43.0145H75.4573C75.3321 44.5535 75.1519 46.3515 74.976 48.4828C74.6462 52.4788 74.1349 55.5301 73.593 57.8925V57.8925ZM64.5203 58.4906C64.4139 58.3433 64.2155 58.0703 63.8538 57.5712C63.5484 56.7903 62.3994 53.8559 58.155 43.0145H58.16C63.7681 51.8236 66.6963 56.4208 68.2221 58.8163L69.6202 61.0098C69.7191 61.1653 69.7879 61.272 69.8392 61.345L70.4882 63.4414L71.1998 65.7404C71.1854 65.8584 71.1804 65.9689 71.186 66.0749L64.5203 58.4906ZM27.1464 64.769C26.9411 63.4979 26.8091 61.8028 26.7371 59.9032L28.542 65.6191L28.8812 66.6927C28.3117 66.8171 27.5031 66.9746 27.1464 64.769V64.769ZM41.0386 32.4398L42.4354 34.4092L38.2236 32.4366C39.1148 32.4379 40.0516 32.4391 41.0386 32.4398ZM60.1382 32.4169C61.1064 32.4163 62.0264 32.4156 62.9057 32.415L58.732 34.3692L60.1382 32.4169ZM71.9583 42.1104C71.917 42.0583 71.8794 42.0107 71.8388 41.9599C72.7493 38.096 73.2807 35.8402 73.5917 34.5216C74.0079 34.825 74.3608 35.1463 74.5955 35.4872C75.6451 37.0116 75.7464 38.9734 75.5268 42.1079L71.9583 42.1104ZM50.9254 42.8005V42.617L51.1939 42.3396L75.5117 42.3218C75.5005 42.4786 75.488 42.638 75.4754 42.8005H50.9254ZM64.1655 43.0145L69.5282 60.3387C68.5256 58.7674 65.8095 54.5047 58.4948 43.0145H64.1655ZM69.9707 60.8174C68.8911 57.3293 67.1776 51.7931 64.4602 43.0145H71.5396L70.1459 58.8264L69.9707 60.8174ZM53.3098 43.0145H57.8521L62.8737 55.8393L63.1954 56.6614C61.7635 54.685 58.9235 50.7646 53.3098 43.0145V43.0145ZM52.9606 43.0145L62.5345 56.2316L50.9179 43.0145H52.9606ZM52.7985 42.1244L51.401 42.125L56.8745 36.465L52.7985 42.1244ZM66.0805 34.6873L70.3649 32.6804C71.2417 33.1654 72.4095 33.7178 73.3426 34.3489L71.616 41.6787C68.9092 38.2611 67.1801 36.0764 66.0805 34.6873V34.6873ZM64.6592 41.0381L65.9028 34.9177C67.0324 36.3456 68.8091 38.5893 71.5972 42.1104L64.4296 42.1155C64.4752 41.9434 64.5397 41.6266 64.6592 41.0381V41.0381ZM64.2756 42.1161L64.2706 42.0437L64.2762 42.1161H64.2756ZM58.1494 42.1206L65.6105 34.9419C65.1011 37.456 64.2406 41.6901 64.1517 42.1161L58.1494 42.1206ZM57.6687 42.1206L53.1471 42.1237L57.8483 35.5971C57.8321 36.31 57.7883 38.0217 57.6687 42.1206ZM69.8987 32.4093C69.9513 32.4417 70.0063 32.4747 70.062 32.5071C69.49 32.7756 68.3172 33.3248 65.919 34.4479L65.9328 34.4778L65.8177 34.3546C64.8658 33.1515 64.4565 32.6347 64.2825 32.4137C66.4228 32.4118 68.2828 32.4106 69.8987 32.4093V32.4093ZM58.3903 34.8435C62.9682 32.6994 63.4889 32.4556 63.5359 32.434L63.539 32.4321L63.5378 32.4283L63.5428 32.4144C63.6817 32.4144 63.8206 32.4137 63.9564 32.4137C63.9564 32.4144 63.9564 32.415 63.9571 32.4156L63.9383 32.4328L63.9577 32.4169C64.0616 32.5909 64.3545 32.9616 65.0441 33.8327C65.2068 34.0384 65.3965 34.2784 65.6105 34.5489L57.956 41.9129C58.0486 38.7334 58.0949 37.0262 58.1168 36.1164C58.1287 35.6523 58.1356 35.3736 58.1306 35.2034L58.3903 34.8435ZM29.278 43.0469C30.7549 59.8041 30.8926 61.373 30.9033 61.4879C30.9039 61.4936 30.9039 61.4961 30.9039 61.4961L30.9114 61.4955L30.9176 61.5006C29.7117 65.3982 29.3988 66.4102 29.3212 66.659C29.2742 66.6432 29.221 66.6387 29.1616 66.6432C28.9594 66.0045 28.4932 64.5296 27.428 61.1558L29.278 43.0469ZM27.3936 43.0221H28.9976L27.214 60.479C27.0563 59.98 26.8867 59.4416 26.7046 58.8651C26.5612 53.2718 26.8892 46.3331 27.3936 43.0221V43.0221ZM28.2466 37.6712L29.2523 41.9396L29.114 42.1136H27.5369L28.2466 37.6712ZM35.0099 34.6911L29.4757 41.6584C29.0114 39.6864 28.6478 38.1468 28.363 36.9399L28.4337 36.4999C28.7129 34.7533 28.6897 33.1013 28.2222 32.4252C28.8205 32.4258 29.4714 32.4264 30.1773 32.4271L35.0099 34.6911ZM35.1921 34.4612L30.8501 32.4277C32.5242 32.4302 34.4918 32.4321 36.8023 32.4353L35.1921 34.4612ZM42.769 34.8803L42.963 35.1539L43.1595 41.9745L35.4324 34.6143L37.1634 32.4353C37.2911 32.4353 37.4213 32.4359 37.5508 32.4359L42.769 34.8803ZM48.1373 43.0221H50.1832L38.094 56.8862C39.5253 54.9104 42.3954 50.9487 48.1373 43.0221V43.0221ZM31.1267 60.8244L29.5583 43.0221H36.6371C33.9204 51.7988 32.2069 57.3363 31.1267 60.8244ZM36.9325 43.0221H42.5981C35.2972 54.4888 32.5773 58.7623 31.571 60.3419L36.9325 43.0221ZM43.2459 43.0221H47.7881L37.9025 56.6691C38.544 55.0304 39.9915 51.3328 43.2459 43.0221V43.0221ZM36.9444 42.1136L35.4643 35.0358L42.8941 42.1136H36.9444ZM36.6571 42.1136H29.4751L35.1608 34.9571L36.6571 42.1136ZM47.8995 42.1136H43.4449L43.2565 35.5679L47.8995 42.1136ZM48.2462 42.1136L44.2941 36.5418L49.6944 42.1136H48.2462ZM27.5025 42.3275H49.9016L50.1725 42.6075V42.8081H27.4255L27.5025 42.3275ZM36.4337 58.7909L29.6391 66.5829L31.2537 61.3653L42.9267 43.0329L42.9098 43.0221H42.943L37.2623 57.5306L36.4637 58.6556C36.4612 58.6594 36.4581 58.6632 36.4556 58.6664C36.4243 58.7159 36.4237 58.7578 36.4337 58.7909ZM71.3193 65.1747C71.0784 64.3963 70.7179 63.2319 70.1803 61.4942L70.1866 61.4879L70.1941 61.4885C70.1941 61.4885 70.1941 61.486 70.1947 61.4809C70.2053 61.3666 70.3424 59.8022 71.82 43.0386L73.3933 58.7248C72.5366 62.1691 71.6504 63.995 71.3193 65.1747ZM89.2806 37.6084C87.4764 33.9724 85.0018 31.9668 81.643 32.0004L73.6192 32.083L69.9832 32.1001C69.9888 32.109 69.9913 32.1153 69.9957 32.1242L59.9931 32.1318V32.1363L59.9918 32.1356L58.0242 34.8682L50.5893 42.5561H50.5887L50.5818 42.5643L50.5537 42.5936L43.2183 35.0238L41.1838 32.156L41.1831 32.1566V32.1547L37.6134 32.1509L37.6071 32.1477L37.6059 32.1509L23.7438 32.1344C22.7681 32.1261 21.82 32.1223 21.3005 32.1229C19.3242 32.1261 19.6696 32.083 19.4956 32.0931C19.4744 32.1147 19.5013 32.0849 19.4925 32.1033C19.189 32.6728 24.3176 31.7801 24.394 36.2256V41.7396V43.431V60.8619C24.394 63.849 23.9528 66.0045 23.0716 67.3295C22.1905 68.645 20.7604 69.3078 18.7884 69.3078C17.2495 69.3078 15.9635 68.8132 14.9233 67.8336C13.8895 66.8438 13.3694 65.6775 13.3694 64.3334C13.3694 64.11 13.4276 63.9233 13.5359 63.7735C13.6516 63.6147 13.7887 63.5405 13.9402 63.5405C13.984 63.5405 14.1861 63.5779 14.5547 63.6624C14.9233 63.7455 15.2694 63.783 15.5948 63.783C16.5267 63.783 17.2633 63.4097 17.8053 62.6726C18.3472 61.9355 18.622 60.9374 18.622 59.6867C18.622 58.389 18.3184 57.3535 17.7114 56.5783C17.1043 55.8043 16.2951 55.4215 15.2769 55.4215C14.0484 55.4215 13.0302 56.0748 12.221 57.3909C11.4049 58.6969 11 60.3584 11 62.3653C11 65.3696 11.7804 67.7866 13.3406 69.6068C14.8939 71.4264 16.9892 72.3413 19.6114 72.3413C22.805 72.3413 27.6884 69.4856 29.3794 67.3098L29.3806 67.3111L50.553 43.0284L64.3013 58.6696L64.4139 58.8258L64.4183 58.8264L64.4421 58.8302L71.4176 66.767C71.4489 66.8133 71.4827 66.8603 71.5208 66.906C78.925 74.3196 92.0674 77.2846 91.9867 53.2343C91.9642 46.4575 91.0849 41.245 89.2806 37.6084" fill="white"></path></svg>